<?xml version="1.0" encoding="UTF-8"?>
<svg width="700pt" height="700pt" version="1.1" viewBox="0 0 700 700" xmlns="http://www.w3.org/2000/svg" xmlns:xlink="http://www.w3.org/1999/xlink">
 <defs>
  <symbol id="v" overflow="visible">
   <path d="m5.5156-0.32812c-0.28125 0.14844-0.57812 0.25781-0.89062 0.32812-0.30469 0.070312-0.625 0.10938-0.96875 0.10938-1 0-1.793-0.27344-2.375-0.82812-0.58594-0.5625-0.875-1.3203-0.875-2.2812 0-0.95703 0.28906-1.7109 0.875-2.2656 0.58203-0.5625 1.375-0.84375 2.375-0.84375 0.34375 0 0.66406 0.039063 0.96875 0.10938 0.3125 0.074219 0.60938 0.18359 0.89062 0.32812v1.25c-0.28125-0.19531-0.5625-0.33594-0.84375-0.42188-0.28125-0.09375-0.57812-0.14062-0.89062-0.14062-0.55469 0-0.98438 0.17969-1.2969 0.53125-0.3125 0.35547-0.46875 0.83984-0.46875 1.4531 0 0.625 0.15625 1.1172 0.46875 1.4688 0.3125 0.35547 0.74219 0.53125 1.2969 0.53125 0.3125 0 0.60938-0.046875 0.89062-0.14062s0.5625-0.23828 0.84375-0.4375z"/>
  </symbol>
  <symbol id="d" overflow="visible">
   <path d="m4.0312-3.2812c-0.125-0.050781-0.25-0.09375-0.375-0.125s-0.25-0.046875-0.375-0.046875c-0.36719 0-0.65234 0.12109-0.85938 0.35938-0.19922 0.24219-0.29688 0.57812-0.29688 1.0156v2.0781h-1.4375v-4.5h1.4375v0.73438c0.1875-0.28906 0.39844-0.50391 0.64062-0.64062 0.23828-0.13281 0.52344-0.20312 0.85938-0.20312 0.050781 0 0.10156 0.007813 0.15625 0.015625 0.0625 0 0.14453 0.007812 0.25 0.015625z"/>
  </symbol>
  <symbol id="a" overflow="visible">
   <path d="m5.1875-2.2656v0.40625h-3.3594c0.03125 0.34375 0.14844 0.60156 0.35938 0.76562 0.20703 0.16797 0.5 0.25 0.875 0.25 0.30078 0 0.60938-0.039062 0.92188-0.125 0.32031-0.09375 0.64844-0.23438 0.98438-0.42188v1.125c-0.33594 0.125-0.67188 0.21875-1.0156 0.28125s-0.68359 0.09375-1.0156 0.09375c-0.82422 0-1.4609-0.20312-1.9062-0.60938-0.44922-0.41406-0.67188-1-0.67188-1.75 0-0.72656 0.21875-1.3008 0.65625-1.7188 0.44531-0.42578 1.0547-0.64062 1.8281-0.64062 0.70703 0 1.2734 0.21484 1.7031 0.64062 0.42578 0.42969 0.64062 0.99609 0.64062 1.7031zm-1.4844-0.46875c0-0.28125-0.078125-0.50391-0.23438-0.67188-0.15625-0.16406-0.36719-0.25-0.625-0.25-0.28125 0-0.51172 0.078125-0.6875 0.23438-0.16797 0.15625-0.27344 0.38672-0.3125 0.6875z"/>
  </symbol>
  <symbol id="e" overflow="visible">
   <path d="m2.7031-2.0312c-0.29297 0-0.51562 0.054688-0.67188 0.15625-0.14844 0.10547-0.21875 0.25781-0.21875 0.45312 0 0.17969 0.054688 0.32031 0.17188 0.42188 0.125 0.10547 0.29688 0.15625 0.51562 0.15625 0.26953 0 0.49219-0.09375 0.67188-0.28125 0.1875-0.19531 0.28125-0.44141 0.28125-0.73438v-0.17188zm2.2031-0.53125v2.5625h-1.4531v-0.67188c-0.1875 0.28125-0.40625 0.48438-0.65625 0.60938-0.24219 0.11328-0.53125 0.17188-0.875 0.17188-0.46875 0-0.85156-0.13281-1.1406-0.40625-0.28125-0.26953-0.42188-0.61719-0.42188-1.0469 0-0.53125 0.17578-0.92188 0.53125-1.1719 0.36328-0.25 0.9375-0.375 1.7188-0.375h0.84375v-0.10938c0-0.22656-0.089844-0.39453-0.26562-0.5-0.17969-0.10156-0.46094-0.15625-0.84375-0.15625-0.30469 0-0.58984 0.03125-0.85938 0.09375-0.26172 0.0625-0.50781 0.15625-0.73438 0.28125v-1.0938c0.30078-0.082031 0.60938-0.14062 0.92188-0.17188 0.3125-0.039063 0.625-0.0625 0.9375-0.0625 0.8125 0 1.3945 0.16406 1.75 0.48438 0.36328 0.3125 0.54688 0.83594 0.54688 1.5625z"/>
  </symbol>
  <symbol id="c" overflow="visible">
   <path d="m2.2656-5.7812v1.2812h1.4844v1.0312h-1.4844v1.9062c0 0.21094 0.039063 0.35156 0.125 0.42188 0.082031 0.074219 0.25 0.10938 0.5 0.10938h0.73438v1.0312h-1.2344c-0.57422 0-0.98047-0.11719-1.2188-0.35938-0.23047-0.23828-0.34375-0.64062-0.34375-1.2031v-1.9062h-0.71875v-1.0312h0.71875v-1.2812z"/>
  </symbol>
  <symbol id="k" overflow="visible">
   <path d="m3.75-3.8438v-2.4062h1.4531v6.25h-1.4531v-0.65625c-0.19922 0.27344-0.41797 0.46875-0.65625 0.59375-0.24219 0.11328-0.51562 0.17188-0.82812 0.17188-0.55469 0-1.0078-0.21875-1.3594-0.65625-0.35547-0.4375-0.53125-1.0039-0.53125-1.7031 0-0.6875 0.17578-1.25 0.53125-1.6875 0.35156-0.44531 0.80469-0.67188 1.3594-0.67188 0.3125 0 0.58594 0.0625 0.82812 0.1875 0.23828 0.125 0.45703 0.32031 0.65625 0.57812zm-0.9375 2.9219c0.30078 0 0.53125-0.11328 0.6875-0.34375 0.16406-0.22656 0.25-0.55469 0.25-0.98438 0-0.42578-0.085938-0.75-0.25-0.96875-0.15625-0.22656-0.38672-0.34375-0.6875-0.34375-0.3125 0-0.55469 0.11719-0.71875 0.34375-0.15625 0.21875-0.23438 0.54297-0.23438 0.96875 0 0.42969 0.078125 0.75781 0.23438 0.98438 0.16406 0.23047 0.40625 0.34375 0.71875 0.34375z"/>
  </symbol>
  <symbol id="j" overflow="visible">
   <path d="m3.0938-0.92188c0.30078 0 0.53125-0.11328 0.6875-0.34375 0.16406-0.22656 0.25-0.55469 0.25-0.98438 0-0.42578-0.085938-0.75-0.25-0.96875-0.15625-0.22656-0.38672-0.34375-0.6875-0.34375-0.3125 0-0.55469 0.11719-0.71875 0.34375-0.16797 0.21875-0.25 0.54297-0.25 0.96875 0 0.42969 0.082031 0.75781 0.25 0.98438 0.16406 0.23047 0.40625 0.34375 0.71875 0.34375zm-0.96875-2.9219c0.19531-0.25781 0.41406-0.45312 0.65625-0.57812 0.25-0.125 0.53125-0.1875 0.84375-0.1875 0.55078 0 1.0039 0.22656 1.3594 0.67188 0.36328 0.4375 0.54688 1 0.54688 1.6875 0 0.69922-0.18359 1.2656-0.54688 1.7031-0.35547 0.4375-0.80859 0.65625-1.3594 0.65625-0.3125 0-0.59375-0.058594-0.84375-0.17188-0.24219-0.125-0.46094-0.32031-0.65625-0.59375v0.65625h-1.4375v-6.25h1.4375z"/>
  </symbol>
  <symbol id="i" overflow="visible">
   <path d="m0.09375-4.5h1.4531l1.2031 3.0469 1.0312-3.0469h1.4375l-1.8906 4.9219c-0.1875 0.5-0.41406 0.84766-0.67188 1.0469-0.25 0.20703-0.58594 0.3125-1 0.3125h-0.82812v-0.95312h0.45312c0.23828 0 0.41016-0.042969 0.51562-0.125 0.11328-0.074219 0.20312-0.21094 0.26562-0.40625l0.046875-0.125z"/>
  </symbol>
  <symbol id="h" overflow="visible">
   <path d="m0.75-6h1.9688l1.375 3.2031 1.375-3.2031h1.9688v6h-1.4688v-4.3906l-1.375 3.2344h-0.98438l-1.3906-3.2344v4.3906h-1.4688z"/>
  </symbol>
  <symbol id="u" overflow="visible">
   <path d="m1.8281-2.2969-1.625-2.2031h1.5312l0.92188 1.3281 0.92188-1.3281h1.5312l-1.625 2.1875 1.7031 2.3125h-1.5312l-1-1.4219-1 1.4219h-1.5312z"/>
  </symbol>
  <symbol id="t" overflow="visible">
   <path d="m0.6875-4.5h1.4375v4.5h-1.4375zm0-1.75h1.4375v1.1719h-1.4375z"/>
  </symbol>
  <symbol id="g" overflow="visible">
   <path d="m4.3281-4.3594v1.1719c-0.19922-0.13281-0.39844-0.23438-0.59375-0.29688-0.1875-0.0625-0.39062-0.09375-0.60938-0.09375-0.39844 0-0.71094 0.12109-0.9375 0.35938-0.21875 0.23047-0.32812 0.55469-0.32812 0.96875 0 0.42969 0.10938 0.76172 0.32812 1 0.22656 0.23047 0.53906 0.34375 0.9375 0.34375 0.22656 0 0.44141-0.03125 0.64062-0.09375 0.20703-0.070312 0.39453-0.17578 0.5625-0.3125v1.1875c-0.21875 0.074219-0.44922 0.12891-0.6875 0.17188-0.23047 0.039062-0.46094 0.0625-0.6875 0.0625-0.8125 0-1.4492-0.20703-1.9062-0.625-0.46094-0.41406-0.6875-0.99219-0.6875-1.7344 0-0.73828 0.22656-1.3164 0.6875-1.7344 0.45703-0.41406 1.0938-0.625 1.9062-0.625 0.22656 0 0.45703 0.023437 0.6875 0.0625 0.22656 0.042969 0.45703 0.10547 0.6875 0.1875z"/>
  </symbol>
  <symbol id="b" overflow="visible">
   <path d="m2.8281-3.5781c-0.3125 0-0.55469 0.11719-0.71875 0.34375-0.16797 0.23047-0.25 0.55859-0.25 0.98438 0 0.4375 0.082031 0.77344 0.25 1 0.16406 0.23047 0.40625 0.34375 0.71875 0.34375 0.32031 0 0.5625-0.11328 0.71875-0.34375 0.16406-0.22656 0.25-0.5625 0.25-1 0-0.42578-0.085937-0.75391-0.25-0.98438-0.15625-0.22656-0.39844-0.34375-0.71875-0.34375zm0-1.0312c0.78125 0 1.3828 0.21094 1.8125 0.625 0.4375 0.41797 0.65625 0.99609 0.65625 1.7344 0 0.74219-0.21875 1.3203-0.65625 1.7344-0.42969 0.41797-1.0312 0.625-1.8125 0.625-0.77344 0-1.375-0.20703-1.8125-0.625-0.4375-0.41406-0.65625-0.99219-0.65625-1.7344 0-0.73828 0.21875-1.3164 0.65625-1.7344 0.4375-0.41406 1.0391-0.625 1.8125-0.625z"/>
  </symbol>
  <symbol id="f" overflow="visible">
   <path d="m5.2188-2.7344v2.7344h-1.4531v-2.0938c0-0.39453-0.011719-0.66406-0.03125-0.8125-0.011719-0.14453-0.039063-0.25391-0.078125-0.32812-0.054688-0.09375-0.13281-0.16406-0.23438-0.21875-0.09375-0.050781-0.20312-0.078125-0.32812-0.078125-0.30469 0-0.54297 0.12109-0.71875 0.35938-0.16797 0.23047-0.25 0.54688-0.25 0.95312v2.2188h-1.4375v-4.5h1.4375v0.65625c0.21875-0.25781 0.44531-0.45312 0.6875-0.57812 0.25-0.125 0.51953-0.1875 0.8125-0.1875 0.51953 0 0.91406 0.16406 1.1875 0.48438 0.26953 0.3125 0.40625 0.77734 0.40625 1.3906z"/>
  </symbol>
  <symbol id="s" overflow="visible">
   <path d="m4.2031-4.3594v1.0938c-0.30469-0.13281-0.60156-0.23438-0.89062-0.29688-0.28125-0.0625-0.55469-0.09375-0.8125-0.09375-0.27344 0-0.47656 0.039062-0.60938 0.10938-0.125 0.0625-0.1875 0.16797-0.1875 0.3125 0 0.11719 0.046875 0.20312 0.14062 0.26562 0.10156 0.0625 0.28516 0.10938 0.54688 0.14062l0.25 0.03125c0.73828 0.09375 1.2344 0.25 1.4844 0.46875 0.25781 0.21094 0.39062 0.54297 0.39062 1 0 0.48047-0.17969 0.83984-0.53125 1.0781-0.35547 0.24219-0.88672 0.35938-1.5938 0.35938-0.29297 0-0.60156-0.027344-0.92188-0.078125-0.3125-0.039062-0.63672-0.10938-0.96875-0.20312v-1.0938c0.28125 0.14844 0.57031 0.25781 0.875 0.32812 0.30078 0.0625 0.60938 0.09375 0.92188 0.09375 0.28125 0 0.48828-0.035156 0.625-0.10938 0.14453-0.082031 0.21875-0.19531 0.21875-0.34375 0-0.13281-0.054687-0.23438-0.15625-0.29688-0.09375-0.0625-0.28906-0.10938-0.57812-0.14062l-0.25-0.03125c-0.63672-0.082031-1.0859-0.23438-1.3438-0.45312-0.26172-0.21875-0.39062-0.54688-0.39062-0.98438 0-0.47656 0.16016-0.83203 0.48438-1.0625 0.33203-0.22656 0.83594-0.34375 1.5156-0.34375 0.25781 0 0.53516 0.023437 0.82812 0.0625 0.28906 0.042969 0.60938 0.10547 0.95312 0.1875z"/>
  </symbol>
  <symbol id="r" overflow="visible">
   <path d="m3.6562-6.25v0.9375h-0.79688c-0.21094 0-0.35547 0.039062-0.4375 0.10938-0.074219 0.074219-0.10938 0.20312-0.10938 0.39062v0.3125h1.2344v1.0312h-1.2344v3.4688h-1.4375v-3.4688h-0.71875v-1.0312h0.71875v-0.3125c0-0.48828 0.13281-0.84766 0.40625-1.0781 0.26953-0.23828 0.69141-0.35938 1.2656-0.35938z"/>
  </symbol>
  <symbol id="q" overflow="visible">
   <path d="m4.8594-3.75c0.1875-0.28125 0.40625-0.49219 0.65625-0.64062 0.25-0.14453 0.52344-0.21875 0.82812-0.21875 0.50781 0 0.89844 0.16406 1.1719 0.48438 0.26953 0.3125 0.40625 0.77734 0.40625 1.3906v2.7344h-1.4375v-2.3438-0.10938-0.17188c0-0.3125-0.046875-0.53906-0.14062-0.6875-0.09375-0.14453-0.24609-0.21875-0.45312-0.21875-0.27344 0-0.48438 0.11719-0.64062 0.34375-0.14844 0.23047-0.21875 0.55469-0.21875 0.96875v2.2188h-1.4531v-2.3438c0-0.5-0.042969-0.82031-0.125-0.96875-0.085937-0.14453-0.23438-0.21875-0.45312-0.21875-0.28125 0-0.5 0.11719-0.65625 0.34375-0.14844 0.23047-0.21875 0.55469-0.21875 0.96875v2.2188h-1.4375v-4.5h1.4375v0.65625c0.17578-0.25 0.37891-0.4375 0.60938-0.5625 0.22656-0.13281 0.48438-0.20312 0.76562-0.20312 0.3125 0 0.58594 0.078125 0.82812 0.23438 0.23828 0.14844 0.41406 0.35547 0.53125 0.625z"/>
  </symbol>
  <symbol id="p" overflow="visible">
   <path d="m5.2188-2.7344v2.7344h-1.4531v-2.0938c0-0.39453-0.011719-0.66406-0.03125-0.8125-0.011719-0.14453-0.039063-0.25391-0.078125-0.32812-0.054688-0.09375-0.13281-0.16406-0.23438-0.21875-0.09375-0.050781-0.20312-0.078125-0.32812-0.078125-0.30469 0-0.54297 0.12109-0.71875 0.35938-0.16797 0.23047-0.25 0.54688-0.25 0.95312v2.2188h-1.4375v-6.25h1.4375v2.4062c0.21875-0.25781 0.44531-0.45312 0.6875-0.57812 0.25-0.125 0.51953-0.1875 0.8125-0.1875 0.51953 0 0.91406 0.16406 1.1875 0.48438 0.26953 0.3125 0.40625 0.77734 0.40625 1.3906z"/>
  </symbol>
  <symbol id="o" overflow="visible">
   <path d="m0.75-6h1.7344l2.1875 4.1094v-4.1094h1.4688v6h-1.7344l-2.1875-4.125v4.125h-1.4688z"/>
  </symbol>
  <symbol id="n" overflow="visible">
   <path d="m0.64062-1.75v-2.75h1.4531v0.45312c0 0.24219-0.007812 0.54688-0.015625 0.92188v0.73438c0 0.35547 0.007813 0.61719 0.03125 0.78125 0.019531 0.15625 0.050781 0.27344 0.09375 0.34375 0.0625 0.09375 0.14062 0.16797 0.23438 0.21875 0.09375 0.054687 0.20312 0.078125 0.32812 0.078125 0.30078 0 0.53516-0.11328 0.70312-0.34375 0.17578-0.23828 0.26562-0.5625 0.26562-0.96875v-2.2188h1.4375v4.5h-1.4375v-0.65625c-0.21875 0.27344-0.45312 0.46875-0.70312 0.59375-0.24219 0.11328-0.50781 0.17188-0.79688 0.17188-0.52344 0-0.91797-0.15625-1.1875-0.46875-0.27344-0.32031-0.40625-0.78516-0.40625-1.3906z"/>
  </symbol>
  <symbol id="m" overflow="visible">
   <path d="m0.75-6h2.5781c0.75781 0 1.3438 0.17188 1.75 0.51562 0.41406 0.33594 0.625 0.8125 0.625 1.4375 0 0.63672-0.21094 1.125-0.625 1.4688-0.40625 0.33594-0.99219 0.5-1.75 0.5h-1.0312v2.0781h-1.5469zm1.5469 1.125v1.6719h0.85938c0.30078 0 0.53125-0.070313 0.6875-0.21875 0.16406-0.14453 0.25-0.35156 0.25-0.625 0-0.26953-0.085938-0.47266-0.25-0.60938-0.15625-0.14453-0.38672-0.21875-0.6875-0.21875z"/>
  </symbol>
  <symbol id="l" overflow="visible">
   <path d="m0.6875-4.5h1.4375v4.4219c0 0.60156-0.14844 1.0625-0.4375 1.375-0.28125 0.32031-0.69922 0.48438-1.25 0.48438h-0.70312v-0.95312h0.23438c0.28125 0 0.46875-0.0625 0.5625-0.1875 0.10156-0.11719 0.15625-0.35547 0.15625-0.71875zm0-1.75h1.4375v1.1719h-1.4375z"/>
  </symbol>
 </defs>
 <g>
  <path d="m177.42 278.11v12.723c0.003906 4.9062 1.957 9.6055 5.4258 13.074 3.4648 3.4688 8.168 5.4219 13.074 5.4258h51.133c4.9023-0.003906 9.6055-1.957 13.074-5.4258s5.418-8.168 5.4219-13.074v-12.723c0.125-14.277-7.0586-27.629-19.043-35.387-0.45703-0.29297-0.92578-0.58203-1.3984-0.86328 5.7227-6.2344 8.7227-14.488 8.3359-22.941-0.39453-7.9414-3.7148-15.457-9.3203-21.098-5.6055-5.6406-13.102-9.0078-21.039-9.4492-8.4883-0.42969-16.797 2.5391-23.09 8.2461-6.2969 5.707-10.059 13.688-10.457 22.18-0.40234 8.4883 2.5977 16.785 8.3281 23.059-0.47266 0.28125-0.9375 0.56641-1.3984 0.86328-11.984 7.7617-19.168 21.113-19.047 35.391zm26.168-24.293c1.0977-0.70703 2.2422-1.3516 3.418-1.9258 3.1641-1.5352 5.3398-4.5664 5.793-8.0547 0.44922-3.4883-0.88672-6.9727-3.5586-9.2617-3.9062-3.3555-6.2695-8.168-6.5273-13.309-0.26172-5.1445 1.5977-10.172 5.1484-13.902 3.5469-3.7344 8.4727-5.8477 13.621-5.8477 0.31641 0 0.63672 0 0.95703 0.019531v0.003906c4.6641 0.26172 9.0703 2.2383 12.363 5.5547 3.293 3.3125 5.2422 7.7305 5.4727 12.398 0.26562 5.7695-2.1562 11.34-6.5508 15.09-2.6719 2.293-4.0078 5.7734-3.5547 9.2617 0.45312 3.4883 2.6367 6.5156 5.8008 8.0508 1.1758 0.57422 2.3164 1.2148 3.418 1.9219 8.1992 5.3477 13.098 14.512 12.984 24.301v12.723c-0.003906 2.9375-2.3828 5.3203-5.3203 5.3242h-51.133c-2.9375-0.003906-5.3203-2.3867-5.3242-5.3242v-12.723c-0.10938-9.7891 4.7891-18.957 12.992-24.301z"/>
  <path d="m591.75 69.516h-483.5c-7.4062 0.011719-14.508 2.957-19.746 8.1953-5.2383 5.2344-8.1836 12.336-8.1914 19.742v365.09c0.007812 7.4062 2.9531 14.508 8.1914 19.742 5.2383 5.2383 12.34 8.1836 19.746 8.1953h483.5c7.4062-0.011719 14.508-2.957 19.746-8.1953 5.2383-5.2344 8.1836-12.336 8.1914-19.742v-293.84c0-3.6406-2.9492-6.5898-6.5898-6.5898-3.6367 0-6.5859 2.9492-6.5859 6.5898v293.84c-0.003907 3.9102-1.5625 7.6641-4.3281 10.43-2.7695 2.7695-6.5195 4.3242-10.434 4.3281h-483.5c-3.9141-0.003907-7.6641-1.5586-10.434-4.3281-2.7656-2.7656-4.3242-6.5195-4.3281-10.43v-365.09c0.003907-3.9102 1.5625-7.6641 4.3281-10.43 2.7695-2.7695 6.5195-4.3242 10.434-4.3281h483.5c3.9141 0.003907 7.6641 1.5586 10.434 4.3281 2.7656 2.7656 4.3242 6.5195 4.3281 10.43v31.73h-486.67c-3.6367 0-6.5859 2.9531-6.5859 6.5898 0 3.6406 2.9492 6.5898 6.5859 6.5898h493.26c1.75 0 3.4258-0.69531 4.6602-1.9297 1.2344-1.2383 1.9297-2.9141 1.9297-4.6602v-38.32c-0.007812-7.4062-2.9531-14.508-8.1914-19.742-5.2383-5.2383-12.34-8.1836-19.746-8.1953z"/>
  <path d="m130.33 112.02c0.39844 0.16797 0.8125 0.29297 1.2344 0.37891 0.42188 0.085938 0.85547 0.12891 1.2852 0.13281 1.8633 0.003906 3.6445-0.77734 4.8984-2.1562s1.8672-3.2227 1.6836-5.0781-1.1406-3.5469-2.6406-4.6562c-1.5-1.1055-3.3984-1.5273-5.2266-1.1562-0.42188 0.085937-0.83594 0.21094-1.2344 0.37891-0.39453 0.16406-0.77734 0.36328-1.1367 0.59375-0.72266 0.48438-1.3438 1.1055-1.8281 1.8281-0.23047 0.36328-0.42969 0.74219-0.59375 1.1367-0.16797 0.39844-0.29297 0.8125-0.37891 1.2344-0.082031 0.42578-0.12891 0.85547-0.13281 1.2852 0.011719 1.7461 0.70312 3.418 1.9297 4.6602 0.3125 0.30078 0.64844 0.57812 1.0039 0.82422 0.35938 0.23047 0.74219 0.42969 1.1367 0.59375z"/>
  <path d="m172.4 112.02c0.39453 0.16406 0.80078 0.29297 1.2188 0.37891 0.42969 0.085938 0.86328 0.12891 1.3008 0.13281 1.9766 0.007812 3.8516-0.875 5.1094-2.4023 1.2578-1.5234 1.7656-3.5352 1.3789-5.4727-0.38672-1.9414-1.6211-3.6055-3.3672-4.5312-1.7461-0.92969-3.8164-1.0234-5.6406-0.26172-0.39844 0.16016-0.78125 0.35938-1.1367 0.59375-0.35938 0.24219-0.69531 0.51953-1.0039 0.82422-2.5703 2.5742-2.5703 6.7461 0 9.3203 0.30859 0.30469 0.64453 0.58203 1.0039 0.82422 0.35547 0.23828 0.73828 0.4375 1.1367 0.59375z"/>
  <path d="m221.63 110.6c1.2305-1.2383 1.9258-2.9141 1.9258-4.6602 0.003906-0.42969-0.035157-0.85938-0.11328-1.2852-0.09375-0.41797-0.21875-0.83203-0.37891-1.2344-0.17188-0.39453-0.375-0.77344-0.60938-1.1367-0.24219-0.35938-0.51953-0.69531-0.82422-1.0039-1.2344-1.2344-2.9062-1.9297-4.6523-1.9297-1.7461 0-3.4219 0.69531-4.6523 1.9297-0.3125 0.30469-0.58984 0.64062-0.82422 1.0039-0.48047 0.71875-0.81641 1.5273-0.98828 2.3711-0.085938 0.42578-0.12891 0.85547-0.13281 1.2852-0.003906 2.6641 1.6016 5.0703 4.0664 6.0898 2.4648 1.0234 5.2969 0.45703 7.1836-1.4297z"/>
  <path d="m327.77 168.94v279.12c0 3.6406 2.9492 6.5898 6.5859 6.5898 3.6406 0 6.5898-2.9492 6.5898-6.5898v-279.12c0-3.6406-2.9492-6.5898-6.5898-6.5898-3.6367 0-6.5859 2.9492-6.5859 6.5898z"/>
  <path d="m285.19 347.91h-124.11c-3.6406 0-6.5898 2.9492-6.5898 6.5859 0 3.6406 2.9492 6.5898 6.5898 6.5898h124.11c3.6406 0 6.5898-2.9492 6.5898-6.5898 0-3.6367-2.9492-6.5859-6.5898-6.5859z"/>
  <path d="m285.19 399.66h-127.41c-3.6367 0-6.5859 2.9492-6.5859 6.5898 0 3.6367 2.9492 6.5898 6.5859 6.5898h127.41c3.6406 0 6.5898-2.9531 6.5898-6.5898 0-3.6406-2.9492-6.5898-6.5898-6.5898z"/>
  <path d="m546.73 198.45h-102.27c-3.6367 0-6.5859 2.9492-6.5859 6.5859 0 3.6406 2.9492 6.5898 6.5859 6.5898h102.27c3.6367 0 6.5859-2.9492 6.5859-6.5898 0-3.6367-2.9492-6.5859-6.5859-6.5859z"/>
  <path d="m546.73 262h-163.21c-3.6367 0-6.5859 2.9492-6.5859 6.5898 0 3.6367 2.9492 6.5859 6.5859 6.5859h163.21c3.6367 0 6.5859-2.9492 6.5859-6.5859 0-3.6406-2.9492-6.5898-6.5859-6.5898z"/>
  <path d="m546.73 325.55h-102.27c-3.6367 0-6.5859 2.9492-6.5859 6.5898 0 3.6367 2.9492 6.5859 6.5859 6.5859h102.27c3.6367 0 6.5859-2.9492 6.5859-6.5859 0-3.6406-2.9492-6.5898-6.5859-6.5898z"/>
  <path d="m383.52 402.28h163.21c3.6367 0 6.5859-2.9492 6.5859-6.5898 0-3.6367-2.9492-6.5898-6.5859-6.5898h-163.21c-3.6367 0-6.5859 2.9531-6.5859 6.5898 0 3.6406 2.9492 6.5898 6.5859 6.5898z"/>
  <path d="m383.56 211.62c3.6367 0 6.5859-2.9492 6.5859-6.5898 0-3.6367-2.9492-6.5859-6.5859-6.5859h-0.019532c-3.6367 0.003907-6.582 2.957-6.5781 6.5938 0.003906 3.6406 2.957 6.5859 6.5977 6.582z"/>
  <path d="m383.56 338.72c3.6367 0 6.5859-2.9492 6.5859-6.5859 0-3.6406-2.9492-6.5898-6.5859-6.5898h-0.019532c-3.6367 0.003906-6.582 2.957-6.5781 6.5977 0.003906 3.6367 2.957 6.5859 6.5977 6.5781z"/>
  <use x="70" y="584.707031" xlink:href="#v"/>
  <use x="76.042969" y="584.707031" xlink:href="#d"/>
  <use x="80.105469" y="584.707031" xlink:href="#a"/>
  <use x="85.691406" y="584.707031" xlink:href="#e"/>
  <use x="91.246094" y="584.707031" xlink:href="#c"/>
  <use x="95.183594" y="584.707031" xlink:href="#a"/>
  <use x="100.769531" y="584.707031" xlink:href="#k"/>
  <use x="109.53125" y="584.707031" xlink:href="#j"/>
  <use x="115.425781" y="584.707031" xlink:href="#i"/>
  <use x="123.664062" y="584.707031" xlink:href="#h"/>
  <use x="131.855469" y="584.707031" xlink:href="#e"/>
  <use x="137.414062" y="584.707031" xlink:href="#u"/>
  <use x="142.726562" y="584.707031" xlink:href="#t"/>
  <use x="145.550781" y="584.707031" xlink:href="#g"/>
  <use x="150.429688" y="584.707031" xlink:href="#b"/>
  <use x="156.089844" y="584.707031" xlink:href="#f"/>
  <use x="161.953125" y="584.707031" xlink:href="#s"/>
  <use x="70" y="592.941406" xlink:href="#r"/>
  <use x="73.582031" y="592.941406" xlink:href="#d"/>
  <use x="77.644531" y="592.941406" xlink:href="#b"/>
  <use x="83.300781" y="592.941406" xlink:href="#q"/>
  <use x="94.75" y="592.941406" xlink:href="#c"/>
  <use x="98.6875" y="592.941406" xlink:href="#p"/>
  <use x="104.550781" y="592.941406" xlink:href="#a"/>
  <use x="113.003906" y="592.941406" xlink:href="#o"/>
  <use x="119.894531" y="592.941406" xlink:href="#b"/>
  <use x="125.550781" y="592.941406" xlink:href="#n"/>
  <use x="131.414063" y="592.941406" xlink:href="#f"/>
  <use x="140.144531" y="592.941406" xlink:href="#m"/>
  <use x="146.179688" y="592.941406" xlink:href="#d"/>
  <use x="150.242188" y="592.941406" xlink:href="#b"/>
  <use x="155.898438" y="592.941406" xlink:href="#l"/>
  <use x="158.722656" y="592.941406" xlink:href="#a"/>
  <use x="164.308594" y="592.941406" xlink:href="#g"/>
  <use x="169.1875" y="592.941406" xlink:href="#c"/>
 </g>
</svg>
